HIERARCHY
ROOT hip
{
  OFFSET 0 0 0
  CHANNELS 6 Xposition Yposition Zposition Zrotation Yrotation Xrotation
  JOINT abdomen
  {
    OFFSET 0 20.6881 -0.73152
    CHANNELS 3 Zrotation Xrotation Yrotation
    JOINT chest
    {
      OFFSET 0 11.7043 -0.48768
      CHANNELS 3 Zrotation Xrotation Yrotation
      JOINT neck
      {
        OFFSET 0 22.1894 -2.19456
        CHANNELS 3 Zrotation Xrotation Yrotation
        JOINT head
        {
          OFFSET -0.24384 7.07133 1.2192
          CHANNELS 3 Zrotation Xrotation Yrotation
          JOINT leftEye
          {
            OFFSET 4.14528 8.04674 8.04672
            CHANNELS 3 Zrotation Xrotation Yrotation
            End Site
            {
              OFFSET 1 0 0
            }
          }
          JOINT rightEye
          {
            OFFSET -3.6576 8.04674 8.04672
            CHANNELS 3 Zrotation Xrotation Yrotation
            End Site
            {
              OFFSET 1 0 0
            }
          }
        }
      }
      JOINT rCollar
      {
        OFFSET -2.68224 19.2634 -4.8768
        CHANNELS 3 Zrotation Xrotation Yrotation
        JOINT rShldr
        {
          OFFSET -8.77824 -1.95073 1.46304
          CHANNELS 3 Zrotation Xrotation Yrotation
          JOINT rForeArm
          {
            OFFSET -28.1742 -1.7115 0.48768
            CHANNELS 3 Zrotation Xrotation Yrotation
            JOINT rHand
            {
              OFFSET -22.5879 0.773209 7.07136
              CHANNELS 3 Zrotation Xrotation Yrotation
              JOINT rThumb1
              {
                OFFSET -1.2192 -0.487915 3.41376
                CHANNELS 3 Zrotation Xrotation Yrotation
                JOINT rThumb2
                {
                  OFFSET -3.37035 -0.52449 3.41376
                  CHANNELS 3 Zrotation Xrotation Yrotation
                  End Site
                  {
                    OFFSET -1.78271 -1.18214 1.43049
                  }
                }
              }
              JOINT rIndex1
              {
                OFFSET -7.75947 0.938293 5.60832
                CHANNELS 3 Zrotation Xrotation Yrotation
                JOINT rIndex2
                {
                  OFFSET -2.54057 -0.884171 1.56538
                  CHANNELS 3 Zrotation Xrotation Yrotation
                  End Site
                  {
                    OFFSET -1.62519 -0.234802 1.16502
                  }
                }
              }
              JOINT rMid1
              {
                OFFSET -8.24714 1.18213 3.41376
                CHANNELS 3 Zrotation Xrotation Yrotation
                JOINT rMid2
                {
                  OFFSET -3.10165 -0.590103 1.0647
                  CHANNELS 3 Zrotation Xrotation Yrotation
                  End Site
                  {
                    OFFSET -2.48547 -0.328903 0.83742
                  }
                }
              }
              JOINT rRing1
              {
                OFFSET -8.82822 0.546677 1.51678
                CHANNELS 3 Zrotation Xrotation Yrotation
                JOINT rRing2
                {
                  OFFSET -2.60934 -0.819778 -0.0198488
                  CHANNELS 3 Zrotation Xrotation Yrotation
                  End Site
                  {
                    OFFSET -2.33842 -0.294052 0.168128
                  }
                }
              }
              JOINT rPinky1
              {
                OFFSET -8.27202 -0.0477905 -0.4584
                CHANNELS 3 Zrotation Xrotation Yrotation
                JOINT rPinky2
                {
                  OFFSET -1.82734 -0.647385 -0.700984
                  CHANNELS 3 Zrotation Xrotation Yrotation
                  End Site
                  {
                    OFFSET -1.69225 -0.51767 -0.607171
                  }
                }
              }
            }
          }
        }
      }
      JOINT lCollar
      {
        OFFSET 2.68224 19.2634 -4.8768
        CHANNELS 3 Zrotation Xrotation Yrotation
        JOINT lShldr
        {
          OFFSET 8.77824 -1.95073 1.46304
          CHANNELS 3 Zrotation Xrotation Yrotation
          JOINT lForeArm
          {
            OFFSET 28.1742 -1.7115 0.48768
            CHANNELS 3 Zrotation Xrotation Yrotation
            JOINT lHand
            {
              OFFSET 22.5879 0.773209 7.07136
              CHANNELS 3 Zrotation Xrotation Yrotation
              JOINT lThumb1
              {
                OFFSET 1.2192 -0.487915 3.41376
                CHANNELS 3 Zrotation Xrotation Yrotation
                JOINT lThumb2
                {
                  OFFSET 3.37035 -0.52449 3.41376
                  CHANNELS 3 Zrotation Xrotation Yrotation
                  End Site
                  {
                    OFFSET 1.78271 -1.18214 1.43049
                  }
                }
              }
              JOINT lIndex1
              {
                OFFSET 7.75947 0.938293 5.60832
                CHANNELS 3 Zrotation Xrotation Yrotation
                JOINT lIndex2
                {
                  OFFSET 2.54057 -0.884171 1.56538
                  CHANNELS 3 Zrotation Xrotation Yrotation
                  End Site
                  {
                    OFFSET 1.62519 -0.234802 1.16502
                  }
                }
              }
              JOINT lMid1
              {
                OFFSET 8.24714 1.18213 3.41376
                CHANNELS 3 Zrotation Xrotation Yrotation
                JOINT lMid2
                {
                  OFFSET 3.10165 -0.590103 1.0647
                  CHANNELS 3 Zrotation Xrotation Yrotation
                  End Site
                  {
                    OFFSET 2.48547 -0.328903 0.83742
                  }
                }
              }
              JOINT lRing1
              {
                OFFSET 8.82822 0.546677 1.51678
                CHANNELS 3 Zrotation Xrotation Yrotation
                JOINT lRing2
                {
                  OFFSET 2.60934 -0.819778 -0.0198488
                  CHANNELS 3 Zrotation Xrotation Yrotation
                  End Site
                  {
                    OFFSET 2.33842 -0.294052 0.168128
                  }
                }
              }
              JOINT lPinky1
              {
                OFFSET 8.27202 -0.0477905 -0.4584
                CHANNELS 3 Zrotation Xrotation Yrotation
                JOINT lPinky2
                {
                  OFFSET 1.82734 -0.647385 -0.700984
                  CHANNELS 3 Zrotation Xrotation Yrotation
                  End Site
                  {
                    OFFSET 1.69225 -0.51767 -0.607171
                  }
                }
              }
            }
          }
        }
      }
    }
  }
  JOINT rButtock
  {
    OFFSET -8.77824 4.35084 1.2192
    CHANNELS 3 Zrotation Xrotation Yrotation
    JOINT rThigh
    {
      OFFSET 0 -1.70687 -2.19456
      CHANNELS 3 Zrotation Xrotation Yrotation
      JOINT rShin
      {
        OFFSET 0 -36.8199 0.73152
        CHANNELS 3 Zrotation Xrotation Yrotation
        JOINT rFoot
        {
          OFFSET 0.73152 -45.1104 -5.12064
          CHANNELS 3 Zrotation Xrotation Yrotation
          End Site
          {
            OFFSET -1.1221 -3.69964 12.103
          }
        }
      }
    }
  }
  JOINT lButtock
  {
    OFFSET 8.77824 4.35084 1.2192
    CHANNELS 3 Zrotation Xrotation Yrotation
    JOINT lThigh
    {
      OFFSET 0 -1.70687 -2.19456
      CHANNELS 3 Zrotation Xrotation Yrotation
      JOINT lShin
      {
        OFFSET 0 -36.8199 0.73152
        CHANNELS 3 Zrotation Xrotation Yrotation
        JOINT lFoot
        {
          OFFSET -0.73152 -45.1104 -5.12064
          CHANNELS 3 Zrotation Xrotation Yrotation
          End Site
          {
            OFFSET 1.1221 -3.69964 12.103
          }
        }
      }
    }
  }
}
MOTION
Frames:	8
Frame Time:	0.00833333
0.0 0.0 0.0 0.0 0.0 0.0 0.0 0.0 0.0 0.0 0.0 0.0 0.0 0.0 0.0 0.0 0.0 0.0 0.0 0.0 0.0 0.0 0.0 0.0 0.0 0.0 0.0 0.0 0.0 0.0 0.0 0.0 0.0 0.0 0.0 0.0 0.0 0.0 0.0 0.0 0.0 0.0 0.0 0.0 0.0 0.0 0.0 0.0 0.0 0.0 0.0 0.0 0.0 0.0 0.0 0.0 0.0 0.0 0.0 0.0 0.0 0.0 0.0 0.0 0.0 0.0 0.0 0.0 0.0 0.0 0.0 0.0 0.0 0.0 0.0 0.0 0.0 0.0 0.0 0.0 0.0 0.0 0.0 0.0 0.0 0.0 0.0 0.0 0.0 0.0 0.0 0.0 0.0 0.0 0.0 0.0 0.0 0.0 0.0 0.0 0.0 0.0 0.0 0.0 0.0 0.0 0.0 0.0 0.0 0.0 0.0 0.0 0.0 0.0 0.0 0.0 0.0 0.0 0.0 0.0 0.0 0.0 0.0 0.0 0.0 0.0 0.0 0.0 0.0 0.0 0.0 0.0
100.18260000000001 83.9622 9.584900000000001 35.773287 -85.593125 -33.002756 0.482681 -4.868091 -180.0 -0.173662 -3.310442 -175.674887 -9.281342 14.793092 -83.623458 19.145079 7.419118 95.764422 -0.004543 0.0 -0.001709 0.001372 0.0 0.003339 4.238946 -44.742718 -8.648615 13.149436 15.116809 -9.777958 -86.191696 63.448891 76.990904 26.167001 -53.859928 15.000986 82.305596 -50.13623 32.954422 -139.377739 14.174916 104.451554 -164.891473 -41.072904 122.408842 1.114306 22.573866 -3.9718 23.904223 -61.333761 1.399292 -178.189987 -45.292319 142.157525 0.000351 -0.018469 -0.006106 6.911794 29.712116 4.679727 -144.108483 8.781655 -140.875264 -147.268367 11.058842 -141.551512 130.360136 54.595743 -134.225549 -36.074033 -41.660597 -32.845977 -6.047942 -82.553549 -10.943546 5.334543 22.375796 -0.956608 -88.928809 -50.831196 -37.599122 150.569387 -1.46197 -114.58753 4.706726 7.224275 -2.853445 -152.252959 -54.394081 -88.912624 0.570685 1.648519 -0.321083 -3.170147 0.194647 0.000791 0.021528 -1.726029 0.542592 156.034974 -15.222111 -173.658376 135.067993 -13.384217 132.470354 26.148181 -41.04359 27.874666 -179.991694 75.749055 -0.006834 178.458997 67.228856 10.324358 3.696211 23.282949 -169.060472 171.673616 14.670637 -144.466508 179.994264 75.750235 0.003924 -179.724072 70.014338 -0.46142 3.34978 17.805158 131.103854 -81.712422 -36.769427 178.428814
100.17259999999999 83.9567 9.5094 32.898752 -85.344303 -30.067293 1.669505 -1.128885 -52.985916 0.644212 -2.562167 61.877978 1.421496 27.50832 179.026526 -2.665828 33.577568 -152.171159 0.00164 0.0 0.004113 0.001086 -0.0 -0.00035 -150.168528 21.534895 155.274414 -30.361292 4.43559 36.762112 76.033907 47.574747 -84.635664 -148.219026 61.98664 124.590486 -121.365242 30.330869 71.958854 52.224142 -46.224653 34.312487 -43.648296 38.804103 34.059354 -155.601633 2.373531 110.763503 173.126895 -66.298137 137.617534 -42.514637 58.334221 36.4209 -71.770646 -72.140865 -88.738977 14.086733 26.71841 -0.989467 -49.3307 -49.30226 -48.062291 -151.68427 29.495248 -146.581632 142.974298 39.432051 -147.390988 24.383251 4.674789 -43.491199 -170.485394 8.384099 163.122444 17.781722 54.12172 -7.634738 171.604662 -9.28567 -89.950276 -16.309477 -61.293389 -16.379557 -159.639148 -69.972613 -102.396085 -0.18899 25.643563 0.561206 82.84043 61.11181 -74.532273 34.41421 55.067056 -29.255939 145.118806 0.227221 179.198308 157.337926 45.534206 -175.531584 123.03714 -31.104087 120.855194 146.502367 11.038417 141.927759 -0.0 -0.000965 -0.001133 -1.400713 -13.100205 -124.669045 -14.929393 -16.163224 75.176659 87.245176 19.230618 1.508347 -179.96993 75.748766 -0.024741 179.417736 65.983631 -0.814733 -4.091108 15.551628 -28.617198 -136.245876 -51.03311 -27.855862
100.1406 83.9563 9.4301 29.20062 -85.049491 -26.376066 -0.858742 -0.252249 -0.039564 0.529366 -4.340929 12.915621 1.062825 30.507113 169.498064 -15.707868 35.028437 -125.591325 0.005251 0.0 0.002639 -0.000935 -0.0 0.000643 -159.221569 -48.725133 170.566816 -63.447554 -31.14762 -29.6173 2.875076 -18.484145 -65.509245 170.084009 -22.694792 142.78361 -164.699319 -2.371797 89.584257 -134.192676 7.452995 65.64089 60.463888 -70.522652 15.713529 -155.315985 -13.240124 115.056955 5.156061 -15.975497 -2.314283 167.975356 -64.082847 133.235852 -145.122928 1.121755 -179.4803 -154.221701 -12.726778 -177.473952 9.600495 31.055824 8.341726 1.079978 -2.219428 -0.859032 83.950901 68.259067 -87.08592 -69.535127 -13.503057 -73.567283 -167.553663 34.693387 -129.283735 -164.517772 -19.479245 -145.062964 -81.971518 -50.090608 -32.723719 88.694194 38.878905 -51.680855 129.576609 16.760691 -108.785187 89.570214 55.296815 -67.718312 0.220651 0.638319 -0.122398 -0.334872 8.292811 -1.287606 74.841458 72.961808 -92.827674 -3.228298 45.430794 -2.592819 81.324763 -51.184072 79.740545 79.926529 -53.514642 80.488464 -179.958312 75.750008 -0.034301 171.708835 61.663964 4.529586 -7.196952 26.232135 -60.22678 90.715107 33.846429 5.700037 179.993898 75.749665 0.005384 179.445302 62.349922 -12.866475 -5.62121 34.362761 145.68491 -29.382125 4.311632 -128.559044
100.1046 83.9588 9.3596 25.807101 -84.675464 -23.018754 -3.221546 -1.350843 55.277412 -1.822209 -4.69957 -39.647998 6.2474 23.132271 97.095733 -29.831089 -1.660641 -51.254128 0.00232 0.0 0.000195 0.000831 -0.0 -0.004826 -149.9051 22.421881 154.975634 62.713777 -41.783121 120.124397 149.84405 78.2109 140.326846 173.967625 -12.181044 143.919288 -165.72785 -3.39811 89.692925 -15.872738 -41.048141 7.767707 -14.228761 19.203624 9.558907 -165.877526 -16.573679 110.217772 -10.976316 25.789866 7.639746 0.040922 9.331132 1.505832 -0.001714 -0.061017 -0.017964 10.313256 0.334152 -0.02549 -81.323485 -51.183014 -79.740981 -159.865105 55.580723 -148.408529 9.651969 34.836098 -11.199541 -36.755033 51.139894 -63.409105 -133.872686 3.770785 -154.159452 177.993351 36.224433 -150.513257 10.204053 9.662051 -2.403971 54.793101 24.40211 -52.890176 140.762765 1.37969 -116.227787 165.034563 -19.052482 -119.041188 5.531631 14.563544 -3.524009 158.945964 7.719966 -141.571825 145.099991 -1.563712 178.638277 152.281704 -24.839063 175.378891 144.260108 9.236345 141.012321 82.110746 -52.397069 81.631767 0.0 -0.001637 0.000244 -4.235714 -16.103664 -63.747198 -23.041443 16.227349 111.442602 -92.999893 46.93005 3.939772 0.0 0.001223 -7.9e-05 -0.424669 -15.938084 -12.227615 -11.265074 27.580662 -18.294971 127.027643 19.655731 -25.798304
100.0726 83.9596 9.3032 23.175335 -84.230809 -20.387562 0.954449 -2.104754 -73.55422 3.222484 -2.164338 91.049364 -10.699772 15.887159 -19.120091 29.96411 -11.278267 72.929328 0.000174 0.0 0.003916 -0.001446 0.0 -0.001264 -130.360514 54.595877 134.225749 -112.309204 -0.586771 76.116151 -130.135474 6.3527 -170.215961 12.637861 -37.848421 4.384088 -85.828952 38.631342 47.955792 87.112758 -50.85879 35.71954 -13.870746 18.815078 9.291021 -173.014713 -26.226956 108.957645 -82.840987 61.111209 74.532061 -11.32794 33.394949 9.300255 -74.841575 72.960833 92.828047 -158.784755 -26.456929 179.942614 12.510838 42.442144 10.449392 1.795439 0.201831 -0.242738 155.416872 -2.951309 -161.719017 -109.176146 4.999643 -171.507679 6.235188 -2.316602 -33.439246 4.234303 32.032261 -3.128169 -81.972399 -50.091835 -32.721733 121.248339 30.308122 -85.356901 -11.982402 -21.346499 5.062927 -4.466065 13.192748 -1.765771 -0.047338 -0.138643 0.026583 -177.718871 -53.109006 -140.031047 72.350948 72.975127 -90.217918 60.323649 -82.155062 77.312589 103.68827 -45.140005 101.852912 -42.305275 79.729411 5.169673 0.0 0.000835 -0.000343 -4.625352 -16.574747 -60.986215 -23.253974 16.57559 95.906784 160.549437 -44.24606 58.358741 0.000166 0.000835 -0.000213 -0.584705 -16.96506 -2.00312 -10.595815 36.041777 -83.939297 176.665886 23.72663 -96.379367
100.02359999999999 83.96050000000001 9.2499 20.680139 -83.784946 -17.90078 0.851744 -4.094787 -121.356715 1.746809 0.136187 139.16653 3.815096 30.851284 139.546859 -32.059628 20.541672 -83.142989 -8.9e-05 -0.0 0.001339 0.000204 0.0 0.003101 4.240327 -44.742803 -8.646201 49.599399 -14.043263 -62.683083 -173.62984 -27.906604 107.876599 168.278814 -25.91462 142.233896 4.53065 -4.514191 -0.521189 -67.846172 30.057358 60.357853 -33.796228 34.486252 25.494031 1.563262 8.41629 -0.186598 6.531637 -20.415191 -2.717459 80.536356 -77.993633 52.14445 -145.119855 0.267919 -179.212061 11.942498 52.755996 -2.722742 -132.782317 -17.595078 -130.284099 3.377032 1.233139 -1.432735 28.701469 57.498971 -31.079599 89.639577 -15.741985 -119.013289 157.460521 2.542818 150.97498 0.552383 19.828876 -2.9008 93.743727 37.964408 -53.548652 79.197264 -3.327715 -58.036836 152.313819 -18.947776 -121.431664 -8.865402 5.239611 9.073937 160.67383 -6.667792 -143.244964 -2.654602 1.632876 -0.585072 -0.006095 1.771147 -0.558013 -10.966354 -13.797377 1.715914 157.017823 56.120921 150.395743 137.528634 -14.487703 133.423785 -0.000904 0.000553 -0.000452 -4.37332 -16.296128 -62.421389 -32.087154 9.73063 -8.754833 4.158051 -34.355069 64.036998 -179.99507 75.750264 -0.00435 179.213563 56.519569 -180.0 -1.80685 -45.654446 -31.033514 -89.775963 -20.23296 -167.184948
99.9846 83.9581 9.1768 17.191955 -83.305551 -14.413023 -0.968937 -0.547471 -0.049634 1.301144 -4.805015 17.733679 4.937197 18.556903 66.486181 -20.23661 -15.501892 -21.648328 -0.000483 0.0 -0.000485 -0.000483 0.0 -0.000485 -149.850893 22.601334 154.912772 85.458085 -24.478706 133.995502 134.180389 8.666234 143.161463 -168.125399 41.120248 140.318879 71.830769 -48.263768 25.792199 -21.21615 -9.693822 -17.453899 -123.869337 22.787743 104.455083 85.07326 -68.034154 36.77682 68.985735 -80.153382 40.580279 91.964807 -78.391813 63.166015 -0.00868 3.5572 1.118909 10.042834 0.029277 -0.070024 12.991971 44.343754 10.760533 -160.734251 55.489964 -149.488506 155.417639 -2.951449 -161.718403 75.070507 1.702265 -6.354501 -173.422549 23.17977 143.077443 14.338279 53.392085 -6.712151 175.197717 -12.846219 -89.808379 -177.606699 -18.513348 -97.260972 -88.791775 -75.49954 -40.048293 169.563493 -36.026022 -112.893708 89.834453 60.701487 -81.263066 147.876746 31.504288 -134.338708 145.118493 0.267471 179.212986 149.422564 -38.76351 171.996602 1.20322 -3.047189 1.11834 -19.488411 58.383498 -9.606329 0.0 0.000294 -0.00143 -4.927306 -15.059118 -1.377883 -4.948864 35.55666 -111.146597 50.981558 -57.633171 134.208645 0.0 0.000294 -0.00143 -0.218026 -18.799515 -180.0 -6.532263 -42.138642 -66.861385 120.060167 86.61735 130.957871
